<svg xmlns="http://www.w3.org/2000/svg" xmlns:xlink="http://www.w3.org/1999/xlink" id="body_1" preserveAspectRatio="xMinYMin meet" viewBox="0 0 793 1123"><defs><clipPath id="1"><path d="M0 842L0 0L0 0L595 0L595 0L595 842L595 842L0 842z" /></clipPath><clipPath id="2"><path d="M12 830L583 830L583 830L583 12L583 12L12 12z" /></clipPath><clipPath id="3"><path d="M49.92 191.76L120.96 191.76L120.96 191.76L120.96 169.2L120.96 169.2L49.92 169.2z" /></clipPath><clipPath id="4"><path d="M12 830L583 830L583 830L583 12L583 12L12 12z" /></clipPath><clipPath id="5"><path d="M49.92 338.64L120.96 338.64L120.96 338.64L120.96 316.08L120.96 316.08L49.92 316.08z" /></clipPath><clipPath id="6"><path d="M12 830L583 830L583 830L583 12L583 12L12 12z" /></clipPath><clipPath id="7"><path d="M49.92 733.68L121.2 733.68L121.2 733.68L121.2 711.12L121.2 711.12L49.92 711.12z" /></clipPath><clipPath id="8"><path d="M12 830L583 830L583 830L583 12L583 12L12 12z" /></clipPath><clipPath id="9"><path d="M49.92 518.64L120.96 518.64L120.96 518.64L120.96 496.08L120.96 496.08L49.92 496.08z" /></clipPath><clipPath id="10"><path d="M12 830L583 830L583 830L583 12L583 12L12 12z" /></clipPath><clipPath id="11"><path d="M49.92 93.12L120.96 93.12L120.96 93.12L120.96 70.56L120.96 70.56L49.92 70.56z" /></clipPath></defs><g transform="matrix(1.333333 0 0 1.333333 0 0)"><g><g clip-path="url(#1)"><g clip-path="url(#2)"><path transform="matrix(1 0 0 -1 0 842)" d="M49.68 749.12L545.76 749.12L545.76 749.12L545.76 747.2L545.76 747.2L49.68 747.2z" stroke="none" fill="#0066CC" fill-rule="winding" /><path transform="matrix(1 0 0 -1 0 842)" d="M254.4 697.76L347.76 697.76L347.76 697.76L347.76 697.28L347.76 697.28L254.4 697.28z" stroke="none" fill="#0000FE" fill-rule="winding" /><path transform="matrix(1 0 0 -1 0 842)" d="M49.68 650.48L545.76 650.48L545.76 650.48L545.76 648.56L545.76 648.56L49.68 648.56z" stroke="none" fill="#0066CC" fill-rule="winding" /><path transform="matrix(1 0 0 -1 0 842)" d="M49.68 503.6L545.76 503.6L545.76 503.6L545.76 501.68L545.76 501.68L49.68 501.68z" stroke="none" fill="#0066CC" fill-rule="winding" /><path transform="matrix(1 0 0 -1 0 842)" d="M49.68 323.6L545.76 323.6L545.76 323.6L545.76 321.68L545.76 321.68L49.68 321.68z" stroke="none" fill="#0066CC" fill-rule="winding" /><path transform="matrix(1 0 0 -1 0 842)" d="M49.68 107.6L545.76 107.6L545.76 107.6L545.76 105.68L545.76 105.68L49.68 105.68z" stroke="none" fill="#0066CC" fill-rule="winding" /><path transform="matrix(1 0 0 -1 0 842)" d="M49.44 673.28L121.44 673.28L121.44 673.28L121.44 650L121.44 650L49.44 650z" stroke="none" fill="#0066CC" fill-rule="winding" /><path transform="matrix(1 0 0 -1 0 842)" d="M49.56 673.16L121.56 673.16L121.56 673.16L121.56 649.88L121.56 649.88L49.56 649.88z" stroke="#0066CC" stroke-width="0.72" fill="none" /></g><g clip-path="url(#3)"></g><g clip-path="url(#4)"><path transform="matrix(1 0 0 -1 0 842)" d="M49.44 526.4L121.44 526.4L121.44 526.4L121.44 502.88L121.44 502.88L49.44 502.88z" stroke="none" fill="#0066CC" fill-rule="winding" /><path transform="matrix(1 0 0 -1 0 842)" d="M49.56 526.28L121.56 526.28L121.56 526.28L121.56 502.76L121.56 502.76L49.56 502.76z" stroke="#0066CC" stroke-width="0.72" fill="none" /></g><g clip-path="url(#5)"></g><g clip-path="url(#6)"><path transform="matrix(1 0 0 -1 0 842)" d="M49.68 131.36L121.68 131.36L121.68 131.36L121.68 107.84L121.68 107.84L49.68 107.84z" stroke="none" fill="#0066CC" fill-rule="winding" /><path transform="matrix(1 0 0 -1 0 842)" d="M49.8 131.24L121.8 131.24L121.8 131.24L121.8 107.72L121.8 107.72L49.8 107.72z" stroke="#0066CC" stroke-width="0.72" fill="none" /></g><g clip-path="url(#7)"></g><g clip-path="url(#8)"><path transform="matrix(1 0 0 -1 0 842)" d="M49.44 346.4L121.44 346.4L121.44 346.4L121.44 322.88L121.44 322.88L49.44 322.88z" stroke="none" fill="#0066CC" fill-rule="winding" /><path transform="matrix(1 0 0 -1 0 842)" d="M49.56 346.28L121.56 346.28L121.56 346.28L121.56 322.76L121.56 322.76L49.56 322.76z" stroke="#0066CC" stroke-width="0.72" fill="none" /></g><g clip-path="url(#9)"></g><g clip-path="url(#10)"><path transform="matrix(1 0 0 -1 0 842)" d="M49.44 771.92L121.44 771.92L121.44 771.92L121.44 748.4L121.44 748.4L49.44 748.4z" stroke="none" fill="#0066CC" fill-rule="winding" /><path transform="matrix(1 0 0 -1 0 842)" d="M49.56 771.8L121.56 771.8L121.56 771.8L121.56 748.28L121.56 748.28L49.56 748.28z" stroke="#0066CC" stroke-width="0.72" fill="none" /></g><g clip-path="url(#11)"></g></g></g></g></svg>